<svg xmlns="http://www.w3.org/2000/svg" xmlns:xlink="http://www.w3.org/1999/xlink" width="226" height="233" viewBox="0 0 226 233">
  <defs>
    <path id="kawaii-icon-a" d="M68.572271,92.752177 C137.144542,92.752177 137.144542,78.5124295 137.144542,45.1389757 C137.144542,11.7655219 122.722596,0.250266498 68.572271,0.250266498 C14.4219459,0.250266498 0,11.7655219 0,45.1389757 C0,78.5124295 0,92.752177 68.572271,92.752177 Z"/>
    <path id="kawaii-icon-c" d="M1.84417963,3.903029 C1.84417963,3.903029 1.84417963,3.903029 1.84417963,3.903029 L0,3.90303442 C0,2.87523536 0.438117519,1.86955349 1.20208494,1.14358909 C1.96742148,0.416323672 3.02574912,0 4.10735174,0 L32.8588139,0 C33.9404166,0 34.9973751,0.416323672 35.7627116,1.14358909 C36.5280482,1.86955349 36.9661657,2.87523536 36.9661657,3.90303442 C36.9565819,7.26484807 35.755866,10.4783464 33.8213034,13.2481998 C31.8771569,16.0128492 29.1608282,18.371583 25.8338733,19.8729503 C23.6186416,20.868224 21.1200027,21.4679903 18.4830828,21.4666893 C14.5181193,21.4666893 10.9050189,20.1227445 8.01481237,18.1022736 C5.11502204,16.0726957 2.86693152,13.3691939 1.47180104,10.3417402 C0.546277782,8.32126939 0.00136911725,6.14337618 0,3.90303442 L1.84417988,3.90303442 Z"/>
  </defs>
  <g fill="none" fill-rule="evenodd" transform="translate(0 -4)">
    <path fill="#888FDC" fill-rule="nonzero" d="M123.041812,13.0681748 C123.041812,13.0681748 142.103011,0.973908231 153.453238,9.87707542 C164.803464,18.7802426 135.599683,43.7665505 135.599683,43.7665505" transform="rotate(-42 139.557 25.186)"/>
    <path fill="#888FDC" fill-rule="nonzero" d="M153.595819,28.9686556 C153.595819,28.9686556 180.995094,27.327606 184.699218,40.3846525 C188.403343,53.441699 153.652064,66.0627178 153.652064,66.0627178" transform="rotate(-51 169.286 47.483)"/>
    <path fill="#888FDC" fill-rule="nonzero" d="M174.845401,67.7142857 C174.845401,67.7142857 199.711223,74.4483693 198.998921,87.1656422 C198.286619,99.882915 163.505226,100.745645 163.505226,100.745645" transform="rotate(-46 181.26 84.23)"/>
    <path fill="#888FDC" fill-rule="nonzero" d="M178.217755,108.1777 C178.217755,108.1777 199.613928,113.901671 199.001016,124.711353 C198.388105,135.521035 168.45993,136.254355 168.45993,136.254355" transform="rotate(-46 183.737 122.216)"/>
    <path fill="#888FDC" fill-rule="nonzero" d="M179.622431,145.337979 C179.622431,145.337979 198.705494,150.393237 198.177391,159.938997 C197.649288,169.484756 170.937282,170.111498 170.937282,170.111498" transform="rotate(-24 184.563 157.725)"/>
    <g fill="#888FDC" transform="translate(162.68 175.066)">
      <path d="M4.5631129,24.9679001 C10.4401563,11.2682122 16.4878169,5.08460369 22.7060947,6.41707462 C28.9243726,7.74954556 32.0335115,15.2373247 32.0335115,28.8804121" transform="rotate(40 18.298 17.56)"/>
      <path d="M24.7505704,40.9364176 C30.6276138,27.2367297 36.6752744,21.0531212 42.8935522,22.3855922 C49.1118301,23.7180631 52.220969,31.2058423 52.220969,44.8489296" transform="rotate(40 38.486 33.529)"/>
    </g>
    <path fill="#99D384" d="M165.175251,171.763066 C179.028393,193.283752 197.538943,208.519349 220.706901,217.469858 C228.554133,220.501489 226.85263,230.393728 214.019401,230.393728 C205.463915,230.393728 179.266972,230.393728 135.428571,230.393728 L165.175251,171.763066 Z"/>
    <path fill="#A6E191" d="M91.2491289,237 C201.818858,237 180.926826,132.980366 180.926826,104.142554 C180.926826,53.4205836 140.776753,21.4703833 91.2491289,21.4703833 C41.7215043,21.4703833 1.57143169,53.4205836 1.57143169,104.142554 C1.57143169,131.692588 -19.3206006,237 91.2491289,237 Z"/>
    <ellipse cx="59.869" cy="71.843" fill="#000" rx="9.497" ry="9.084"/>
    <ellipse cx="122.629" cy="71.843" fill="#000" rx="9.497" ry="9.084"/>
    <g transform="translate(23.122 94.14)">
      <mask id="kawaii-icon-b" fill="#fff">
        <use xlink:href="#kawaii-icon-a"/>
      </mask>
      <use fill="#ECDBCA" xlink:href="#kawaii-icon-a"/>
      <g fill="#FFF" mask="url(#kawaii-icon-b)">
        <g transform="translate(17.415 77.173)">
          <path d="M.46769282 21.8513936C5.59814133 7.28379788 10.2245209 3.97409455e-16 14.3468316 0 18.4691422 0 23.0955218 7.28379788 28.2259703 21.8513936L.46769282 21.8513936zM27.3160952 24.7621636C32.4465437 10.1945679 37.0729233 2.91077001 41.195234 2.91077001 45.3175446 2.91077001 49.9439242 10.1945679 55.0743727 24.7621636L27.3160952 24.7621636z"/>
          <path d="M50.5363351,24.7621636 C55.6667836,10.1945679 60.2931632,2.91077001 64.4154739,2.91077001 C68.5377845,2.91077001 73.1641641,10.1945679 78.2946126,24.7621636 L50.5363351,24.7621636 Z"/>
          <path d="M76.659105,21.8513936 C81.7895535,7.28379788 86.4159331,3.97409455e-16 90.5382437,0 C94.6605544,0 99.286934,7.28379788 104.417383,21.8513936 L76.659105,21.8513936 Z"/>
        </g>
      </g>
      <g fill="#FFF" mask="url(#kawaii-icon-b)">
        <g transform="matrix(1 0 0 -1 17.415 21.841)">
          <path d="M0.46769282,22.5780197 C5.59814133,8.0104239 10.2245209,0.726626026 14.3468316,0.726626026 C18.4691422,0.726626026 23.0955218,8.0104239 28.2259703,22.5780197 L0.46769282,22.5780197 Z"/>
          <path d="M27.3160952,24.7621636 C32.4465437,10.1945679 37.0729233,2.91077001 41.195234,2.91077001 C45.3175446,2.91077001 49.9439242,10.1945679 55.0743727,24.7621636 L27.3160952,24.7621636 Z"/>
          <path d="M50.5363351,24.7621636 C55.6667836,10.1945679 60.2931632,2.91077001 64.4154739,2.91077001 C68.5377845,2.91077001 73.1641641,10.1945679 78.2946126,24.7621636 L50.5363351,24.7621636 Z"/>
          <path d="M76.659105,22.5780197 C81.7895535,8.0104239 86.4159331,0.726626026 90.5382437,0.726626026 C94.6605544,0.726626026 99.286934,8.0104239 104.417383,22.5780197 L76.659105,22.5780197 Z"/>
        </g>
      </g>
    </g>
    <g transform="translate(51.199 123.868)">
      <g transform="translate(23.675 21.838)">
        <mask id="kawaii-icon-d" fill="#fff">
          <use xlink:href="#kawaii-icon-c"/>
        </mask>
        <use fill="#000" xlink:href="#kawaii-icon-c"/>
        <path fill="#E74144" d="M12.1529813,12.3467639 C12.1529813,12.3467639 12.1529813,12.3467639 12.1529813,12.3467639 L11.3950107,12.3467639 C11.3950107,11.9904603 11.57508,11.6418239 11.8890759,11.3901563 C12.2036344,11.1380376 13.0831605,9.92238084 18.9916845,9.92238084 C24.9002086,9.92238084 25.7791719,11.1380376 26.0937305,11.3901563 C26.4082891,11.6418239 26.5883584,11.9904603 26.5883584,12.3467639 C26.5844193,13.5121925 26.0909169,14.6262052 25.2957984,15.5864209 C24.4967408,16.5448326 23.3803111,17.3625269 22.0129099,17.8830009 C21.1024344,18.2280291 20.0754767,18.435948 18.9916845,18.435497 C17.3620573,18.435497 15.8770483,17.9695962 14.6891536,17.2691664 C13.4973199,16.5655794 12.5733392,15.6283656 11.999931,14.5788484 C11.6195346,13.8784186 11.3955734,13.1234157 11.3950107,12.3467639 L12.1529813,12.3467639 Z" mask="url(#kawaii-icon-d)" transform="matrix(1 0 0 -1 0 28.358)"/>
      </g>
      <g fill="#000" opacity=".2" transform="translate(0 19.358)">
        <ellipse cx="3.79" cy="3.566" rx="3.79" ry="3.566"/>
        <ellipse cx="79.588" cy="3.566" rx="3.79" ry="3.566"/>
      </g>
      <g fill="#000" transform="translate(4.346)">
        <path d="M14.2541732 11.6609604C12.3712347 11.6609604 10.8451113 10.2571799 10.8451113 8.52518872 10.8451113 7.5165155 9.95307345 6.69598859 8.85649186 6.69598859 7.76104664 6.69598859 6.86787244 7.5165155 6.86787244 8.52518872 6.86787244 10.2571799 5.34288541 11.6609604 3.45881054 11.6609604 1.57587203 11.6609604.0497486542 10.2571799.0497486542 8.52518872.0497486542 4.0588046 4.00085138.424445215 8.85649186.424445215 13.7132687.424445215 17.6632351 4.0588046 17.6632351 8.52518872 17.6632351 10.2571799 16.1382481 11.6609604 14.2541732 11.6609604M72.1270571 11.6609604C70.2441186 11.6609604 68.7179952 10.2571799 68.7179952 8.52518872 68.7179952 7.5165155 67.8259574 6.69598859 66.7293758 6.69598859 65.6339306 6.69598859 64.7407564 7.5165155 64.7407564 8.52518872 64.7407564 10.2571799 63.2157693 11.6609604 61.3316945 11.6609604 59.448756 11.6609604 57.9226326 10.2571799 57.9226326 8.52518872 57.9226326 4.0588046 61.8737353.424445215 66.7293758.424445215 71.5861526.424445215 75.536119 4.0588046 75.536119 8.52518872 75.536119 10.2571799 74.011132 11.6609604 72.1270571 11.6609604"/>
      </g>
    </g>
  </g>
</svg>
