<svg xmlns="http://www.w3.org/2000/svg" width="152" height="17" viewBox="0 0 152 17">
  <path fill="#545775" fill-rule="evenodd" d="M31.7412881,59.4848485 L27.9387119,54.2460195 L27.1967458,54.2460195 L27.1967458,59.4848485 L23,59.4848485 L23,43 L29.5617627,43 C32.9469831,43 35.5670508,44.5600068 35.6597966,48.4250984 C35.6597966,51.4752611 34.4309153,53.1982537 32.4368814,53.8269132 L36.9118644,59.4848485 L31.7412881,59.4848485 Z M27.1220339,50.7272727 L29.6881222,50.7272727 C32.449722,50.7272727 32.449722,47.1212121 29.6881222,47.1212121 L27.1220339,47.1212121 L27.1220339,50.7272727 Z M42.1041221,46.911659 L42.1041221,49.4728642 L48.7031389,49.4728642 L48.7031389,53.0818353 L42.1041221,53.0818353 L42.1041221,55.5499058 L49.2779661,55.5499058 L49.2779661,59.4848485 L37.9423729,59.4848485 L37.9423729,43 L49.2779661,43 L49.2779661,46.911659 L42.1041221,46.911659 Z M59.8674898,43 L65.7661017,59.4848485 L61.2896848,59.4848485 L60.2172099,56.1785653 L55.810737,56.1785653 L54.7848915,59.4848485 L50.3084746,59.4848485 L56.0671984,43 L59.8674898,43 Z M56.4915254,52.7878788 L59.0677966,52.7878788 L57.8768788,48.1515152 L57.7553566,48.1515152 L56.4915254,52.7878788 Z M75.0348886,54.6057692 L78.6474576,56.2870879 C77.2811655,58.9725275 74.8033137,60 72.7422967,60 C69.5234051,60 66.2813559,58.1085165 66.2813559,54.3489011 L66.2813559,48.6510989 C66.2813559,44.9148352 69.5234051,43 72.8117692,43 C74.8264711,43 77.258008,43.864011 78.5779851,46.8063187 L75.196991,48.1840659 C74.0854313,46.1291209 70.4265473,46.5961538 70.4265473,48.6510989 L70.4265473,54.3489011 C70.4265473,56.3337912 74.1317463,56.8942308 75.0348886,54.6057692 Z M92.0440678,46.9526435 L87.6963211,46.9526435 L87.6963211,59.4848485 L83.5104586,59.4848485 L83.5104586,46.9526435 L79.1627119,46.9526435 L79.1627119,43 L92.0440678,43 L92.0440678,46.9526435 Z M101.920496,49.1003253 L106.409702,43 L111.623729,43 L105.076969,50.96302 L111.600348,59.4848485 L106.292796,59.4848485 L102.060783,53.5940764 L101.920496,53.7803458 L101.920496,59.4848485 L97.7118644,59.4848485 L97.7118644,43 L101.920496,43 L101.920496,49.1003253 Z M120.66749,43 L126.566102,59.4848485 L122.089685,59.4848485 L121.01721,56.1785653 L116.610737,56.1785653 L115.584891,59.4848485 L111.108475,59.4848485 L116.867198,43 L120.66749,43 Z M117.80678,52.7878788 L120.383051,52.7878788 L119.192133,48.1515152 L119.070611,48.1515152 L117.80678,52.7878788 Z M141.434706,50.9397363 L143.420265,43 L147.691525,43 L142.981595,59.4848485 L139.149004,59.4848485 L137.694467,54.9212464 L137.11727,51.1492895 L137.048006,51.1492895 L136.424633,54.8979627 L135.131711,59.4848485 L131.29912,59.4848485 L126.566102,43 L130.86045,43 L132.799833,50.893169 L133.215415,54.3857216 L133.330855,54.3857216 L133.723349,50.9164527 L135.547293,45.142099 L138.687246,45.142099 L140.372663,50.9397363 L140.903684,54.3857216 L140.972948,54.3857216 L141.434706,50.9397363 Z M157.250541,43 L163.149153,59.4848485 L158.672736,59.4848485 L157.600261,56.1785653 L153.193788,56.1785653 L152.167942,59.4848485 L147.691525,59.4848485 L153.450249,43 L157.250541,43 Z M153.874576,52.7878788 L156.450847,52.7878788 L155.25993,48.1515152 L155.138407,48.1515152 L153.874576,52.7878788 Z M168.301695,43 L168.301695,59.4848485 L164.179661,59.4848485 L164.179661,43 L168.301695,43 Z M175,43 L175,59.4848485 L170.877966,59.4848485 L170.877966,43 L175,43 Z" transform="translate(-23 -43)"/>
</svg>
