<svg xmlns="http://www.w3.org/2000/svg" width="30" height="30" viewBox="0 0 30 30">
  <g fill="#4B4E6A">
    <path d="M29.5873099,0.354269006 C29.1149708,-0.118070175 28.3491813,-0.118070175 27.8768421,0.354269006 L0.354269006,27.8767836 C-0.118070175,28.3491228 -0.118070175,29.1149123 0.354269006,29.5872515 C0.590409357,29.8235088 0.9,29.9415205 1.20953216,29.9415205 C1.51906433,29.9415205 1.82859649,29.8234503 2.06479532,29.587193 L29.5873099,2.06467836 C30.0595906,1.59239766 30.0595906,0.826608187 29.5873099,0.354269006 Z"/>
    <path d="M29.5872515,27.8768421 L2.06467836,0.354327485 C1.59239766,-0.118011696 0.826549708,-0.118011696 0.354269006,0.354327485 C-0.118070175,0.826608187 -0.118070175,1.59239766 0.354269006,2.06473684 L27.8768421,29.5873099 C28.1129825,29.8235088 28.4225731,29.9415789 28.7321053,29.9415789 C29.0416374,29.9415789 29.3512281,29.8235088 29.5873099,29.5873684 C30.0595322,29.1149708 30.0595322,28.3491813 29.5872515,27.8768421 Z"/>
  </g>
</svg>
