<svg xmlns="http://www.w3.org/2000/svg" width="560" height="462" viewBox="0 0 560 462">
  <g fill="#89CEF8" fill-rule="evenodd">
    <path d="M438.728782,401.458409 C389.751051,455.6466 273.86961,482.778047 218.307298,443.155277 C162.744986,403.532506 80.7139014,393.39817 39.9452133,360.104919 C-0.823474896,326.811668 -27.7458413,194.116006 48.007263,183.340482 C98.5093325,176.156799 131.623893,140.052816 147.350944,75.0285326 C163.413051,12.0443698 197.685487,-1.48508923 250.168253,34.4401556 C328.892402,88.3280227 392.17964,-14.787151 456.192627,1.83693714 C520.205615,18.4610253 539.051212,95.5498438 531.392627,205.924877 C523.734042,316.29991 487.706514,347.270218 438.728782,401.458409 Z" opacity=".1"/>
    <path d="M183.340543,452.461106 C118.97981,439.867921 90.8447574,377.540612 50.028922,344.18039 C9.21308658,310.820168 7.18864182,154.880331 83.0293513,144.083132 C158.870061,133.285932 213.831563,-38.5218796 292.646754,15.4743856 C371.461945,69.4706508 452.2353,-19.6594142 514.545373,34.4087183 C571.603061,83.9192147 571.786603,186.065167 532.659641,293.690024 C493.532679,401.314882 246.778614,464.873757 183.340543,452.461106 Z" opacity=".1"/>
  </g>
</svg>
