<svg xmlns="http://www.w3.org/2000/svg" width="36" height="25" viewBox="0 0 36 25">
  <g fill="#4B4E6A">
    <path d="M34.5026685 11.0476124L1.45238764 11.0476124C.650280899 11.0476124 0 11.697823 0 12.5 0 13.302177.650280899 13.9523876 1.45238764 13.9523876L34.5026685 13.9523876C35.3048455 13.9523876 35.9550562 13.302177 35.9550562 12.5 35.9550562 11.6978933 35.3048455 11.0476124 34.5026685 11.0476124zM34.5026685.0308286517L1.45238764.0308286517C.650280899.0308286517 0 .681109551 0 1.48321629 0 2.28532303.650280899 2.93560393 1.45238764 2.93560393L34.5026685 2.93560393C35.3048455 2.93560393 35.9550562 2.28532303 35.9550562 1.48321629 35.9550562.681109551 35.3048455.0308286517 34.5026685.0308286517zM34.5026685 22.0643961L1.45238764 22.0643961C.650280899 22.0643961 0 22.7146067 0 23.5167837 0 24.3189607.650280899 24.9691713 1.45238764 24.9691713L34.5026685 24.9691713C35.3048455 24.9691713 35.9550562 24.3189607 35.9550562 23.5167837 35.9550562 22.7146067 35.3048455 22.0643961 34.5026685 22.0643961z"/>
  </g>
</svg>
