<svg xmlns="http://www.w3.org/2000/svg" width="152" height="17" viewBox="0 0 152 17">
  <path fill="#888FDC" fill-rule="evenodd" d="M163.741288,36.4848485 L159.938712,31.2460195 L159.196746,31.2460195 L159.196746,36.4848485 L155,36.4848485 L155,20 L161.561763,20 C164.946983,20 167.567051,21.5600068 167.659797,25.4250984 C167.659797,28.4752611 166.430915,30.1982537 164.436881,30.8269132 L168.911864,36.4848485 L163.741288,36.4848485 Z M159.122034,27.7272727 L161.688122,27.7272727 C164.449722,27.7272727 164.449722,24.1212121 161.688122,24.1212121 L159.122034,24.1212121 L159.122034,27.7272727 Z M174.104122,23.911659 L174.104122,26.4728642 L180.703139,26.4728642 L180.703139,30.0818353 L174.104122,30.0818353 L174.104122,32.5499058 L181.277966,32.5499058 L181.277966,36.4848485 L169.942373,36.4848485 L169.942373,20 L181.277966,20 L181.277966,23.911659 L174.104122,23.911659 Z M191.86749,20 L197.766102,36.4848485 L193.289685,36.4848485 L192.21721,33.1785653 L187.810737,33.1785653 L186.784891,36.4848485 L182.308475,36.4848485 L188.067198,20 L191.86749,20 Z M188.491525,29.7878788 L191.067797,29.7878788 L189.876879,25.1515152 L189.755357,25.1515152 L188.491525,29.7878788 Z M207.034889,31.6057692 L210.647458,33.2870879 C209.281165,35.9725275 206.803314,37 204.742297,37 C201.523405,37 198.281356,35.1085165 198.281356,31.3489011 L198.281356,25.6510989 C198.281356,21.9148352 201.523405,20 204.811769,20 C206.826471,20 209.258008,20.864011 210.577985,23.8063187 L207.196991,25.1840659 C206.085431,23.1291209 202.426547,23.5961538 202.426547,25.6510989 L202.426547,31.3489011 C202.426547,33.3337912 206.131746,33.8942308 207.034889,31.6057692 Z M224.044068,23.9526435 L219.696321,23.9526435 L219.696321,36.4848485 L215.510459,36.4848485 L215.510459,23.9526435 L211.162712,23.9526435 L211.162712,20 L224.044068,20 L224.044068,23.9526435 Z M233.920496,26.1003253 L238.409702,20 L243.623729,20 L237.076969,27.96302 L243.600348,36.4848485 L238.292796,36.4848485 L234.060783,30.5940764 L233.920496,30.7803458 L233.920496,36.4848485 L229.711864,36.4848485 L229.711864,20 L233.920496,20 L233.920496,26.1003253 Z M252.66749,20 L258.566102,36.4848485 L254.089685,36.4848485 L253.01721,33.1785653 L248.610737,33.1785653 L247.584891,36.4848485 L243.108475,36.4848485 L248.867198,20 L252.66749,20 Z M249.80678,29.7878788 L252.383051,29.7878788 L251.192133,25.1515152 L251.070611,25.1515152 L249.80678,29.7878788 Z M273.434706,27.9397363 L275.420265,20 L279.691525,20 L274.981595,36.4848485 L271.149004,36.4848485 L269.694467,31.9212464 L269.11727,28.1492895 L269.048006,28.1492895 L268.424633,31.8979627 L267.131711,36.4848485 L263.29912,36.4848485 L258.566102,20 L262.86045,20 L264.799833,27.893169 L265.215415,31.3857216 L265.330855,31.3857216 L265.723349,27.9164527 L267.547293,22.142099 L270.687246,22.142099 L272.372663,27.9397363 L272.903684,31.3857216 L272.972948,31.3857216 L273.434706,27.9397363 Z M289.250541,20 L295.149153,36.4848485 L290.672736,36.4848485 L289.600261,33.1785653 L285.193788,33.1785653 L284.167942,36.4848485 L279.691525,36.4848485 L285.450249,20 L289.250541,20 Z M285.874576,29.7878788 L288.450847,29.7878788 L287.25993,25.1515152 L287.138407,25.1515152 L285.874576,29.7878788 Z M300.301695,20 L300.301695,36.4848485 L296.179661,36.4848485 L296.179661,20 L300.301695,20 Z M307,20 L307,36.4848485 L302.877966,36.4848485 L302.877966,20 L307,20 Z" transform="translate(-155 -20)"/>
</svg>
