<svg xmlns="http://www.w3.org/2000/svg" width="1483" height="480" viewBox="0 0 1483 480">
  <g fill="none" fill-rule="evenodd">
    <rect width="1483" height="480" fill="#FFF"/>
    <g fill="#E7F6FF" transform="translate(-255 21)">
      <path d="M255,458.695313 L1738.22656,458.695313 L1738.22656,98 C1647.69374,109.817708 1582.45416,115.726562 1542.50781,115.726562 C1449.89844,115.726562 1336.88089,163.422488 1269.73438,163.484375 C1123.213,163.619419 1032.72656,98 927.585937,98 C735.511404,98 649.140625,153.390625 518.773438,153.390625 C420.117188,153.390625 332.192708,134.927083 255,98 L255,458.695313 Z"/>
      <path d="M230.883224,107.481908 C344.265735,67.5148026 454.065625,47.53125 560.282895,47.53125 C683.942434,47.53125 666.1671,124 822.922697,124 C945.611842,124 1077.1534,-4.19475738 1210.62829,58.0328947 C1458.26713,173.485197 1484.38838,47.53125 1629.49342,47.53125 C1726.23011,47.53125 1788.65939,57.3496101 1816.78125,76.9863304 L1816.78855,372.884868 L241,372.884868 L230.883224,107.481908 Z" opacity=".5"/>
      <path d="M0.883223684,67.4819079 C129.994386,27.5148026 255.02594,7.53125 375.977885,7.53125 C516.791726,7.53125 496.550562,84 675.051613,84 C814.760444,84 964.549711,-44.1947574 1116.54051,18.0328947 C1398.53231,133.485197 1428.27716,7.53125 1593.51146,7.53125 C1703.66766,7.53125 1774.75726,17.3496101 1806.78024,36.9863304 L1806.78855,332.884868 L12.4034197,332.884868 L0.883223684,67.4819079 Z" opacity=".3"/>
    </g>
  </g>
</svg>
