<?xml version="1.0" encoding="UTF-8" standalone="no"?>
<svg width="414px" height="415px" viewBox="0 0 414 415" version="1.1" xmlns="http://www.w3.org/2000/svg" xmlns:xlink="http://www.w3.org/1999/xlink">
    <!-- Generator: Sketch 42 (36781) - http://www.bohemiancoding.com/sketch -->
    <title>bg</title>
    <desc>Created with Sketch.</desc>
    <defs></defs>
    <g id="Page-1" stroke="none" stroke-width="1" fill="none" fill-rule="evenodd">
        <g id="bg">
            <circle id="Oval-610" fill="#B8CCDA" cx="319" cy="101" r="3"></circle>
            <circle id="Oval-610" fill="#FFFFFF" cx="54" cy="102" r="3"></circle>
            <circle id="Oval-610" fill="#61DDBC" cx="234" cy="29" r="5"></circle>
            <circle id="Oval-610" fill="#61DDBC" cx="324" cy="189" r="5"></circle>
            <circle id="Oval-610" fill="#61DDBC" cx="384" cy="289" r="5"></circle>
            <circle id="Oval-610" fill="#B8CCDA" cx="204" cy="109" r="5"></circle>
            <circle id="Oval-610" fill="#61DDBC" cx="379" cy="157" r="3"></circle>
            <circle id="Oval-610" fill="#61DDBC" cx="16" cy="29" r="5"></circle>
            <path d="M317,34 C319.209139,34 321,32.209139 321,30 C321,27.790861 319.209139,26 317,26 C314.790861,26 313,27.790861 313,30 C313,32.209139 314.790861,34 317,34 Z" id="Oval-610" fill="#FFFFFF"></path>
            <circle id="Oval-610" fill="#61DDBC" cx="177" cy="160" r="4"></circle>
            <circle id="Oval-610" fill="#B8CCDA" cx="407" cy="220" r="4"></circle>
            <circle id="Oval-610" fill="#FBD277" cx="18" cy="151" r="5"></circle>
            <circle id="Oval-610" fill="#FBD277" cx="128" cy="101" r="5"></circle>
            <circle id="Oval-610" fill="#B8CCDA" cx="394" cy="389" r="5"></circle>
            <circle id="Oval-610" fill="#FBD277" cx="318" cy="381" r="5"></circle>
            <circle id="Oval-610" fill="#61DDBC" cx="68" cy="211" r="5"></circle>
            <circle id="Oval-610" fill="#FBD277" cx="328" cy="41" r="5"></circle>
            <circle id="Oval-610" fill="#FFFFFF" cx="83" cy="166" r="3"></circle>
            <circle id="Oval-610" fill="#FFFFFF" cx="218.5" cy="156.5" r="1.5"></circle>
            <path d="M293,99 L289.995398,99 C289.455664,99 289,99.4477153 289,100 C289,100.556135 289.445655,101 289.995398,101 L293,101 L293,104.004602 C293,104.544336 293.447715,105 294,105 C294.556135,105 295,104.554345 295,104.004602 L295,101 L298.004602,101 C298.544336,101 299,100.552285 299,100 C299,99.4438648 298.554345,99 298.004602,99 L295,99 L295,95.9953976 C295,95.4556644 294.552285,95 294,95 C293.443865,95 293,95.4456547 293,95.9953976 L293,99 Z" id="star" fill="#FFFFFF" transform="translate(294.000000, 100.000000) rotate(-330.000000) translate(-294.000000, -100.000000) "></path>
            <path d="M394.6,80.6 L390.393557,80.6 C389.619627,80.6 389,81.2268014 389,82 C389,82.7785892 389.623917,83.4 390.393557,83.4 L394.6,83.4 L394.6,87.6064434 C394.6,88.3803732 395.226801,89 396,89 C396.778589,89 397.4,88.3760835 397.4,87.6064434 L397.4,83.4 L401.606443,83.4 C402.380373,83.4 403,82.7731986 403,82 C403,81.2214108 402.376083,80.6 401.606443,80.6 L397.4,80.6 L397.4,76.3935566 C397.4,75.6196268 396.773199,75 396,75 C395.221411,75 394.6,75.6239165 394.6,76.3935566 L394.6,80.6 Z" id="star" fill="#61DDBC" transform="translate(396.000000, 82.000000) rotate(-330.000000) translate(-396.000000, -82.000000) "></path>
            <path d="M215,211 L210.493096,211 C209.663886,211 209,211.671573 209,212.5 C209,213.334203 209.668482,214 210.493096,214 L215,214 L215,218.506904 C215,219.336114 215.671573,220 216.5,220 C217.334203,220 218,219.331518 218,218.506904 L218,214 L222.506904,214 C223.336114,214 224,213.328427 224,212.5 C224,211.665797 223.331518,211 222.506904,211 L218,211 L218,206.493096 C218,205.663886 217.328427,205 216.5,205 C215.665797,205 215,205.668482 215,206.493096 L215,211 Z" id="star" fill="#FBD277" transform="translate(216.500000, 212.500000) rotate(-330.000000) translate(-216.500000, -212.500000) "></path>
            <path d="M114,19 L110.995398,19 C110.455664,19 110,19.4477153 110,20 C110,20.5561352 110.445655,21 110.995398,21 L114,21 L114,24.0046024 C114,24.5443356 114.447715,25 115,25 C115.556135,25 116,24.5543453 116,24.0046024 L116,21 L119.004602,21 C119.544336,21 120,20.5522847 120,20 C120,19.4438648 119.554345,19 119.004602,19 L116,19 L116,15.9953976 C116,15.4556644 115.552285,15 115,15 C114.443865,15 114,15.4456547 114,15.9953976 L114,19 Z" id="star" fill="#B8CCDA" transform="translate(115.000000, 20.000000) rotate(-30.000000) translate(-115.000000, -20.000000) "></path>
            <path d="M96,151 L91.4930964,151 C90.6638858,151 90,151.671573 90,152.5 C90,153.334203 90.668482,154 91.4930964,154 L96,154 L96,158.506904 C96,159.336114 96.6715729,160 97.5,160 C98.3342028,160 99,159.331518 99,158.506904 L99,154 L103.506904,154 C104.336114,154 105,153.328427 105,152.5 C105,151.665797 104.331518,151 103.506904,151 L99,151 L99,146.493096 C99,145.663886 98.3284271,145 97.5,145 C96.6657972,145 96,145.668482 96,146.493096 L96,151 Z" id="star" fill="#B8CCDA" transform="translate(97.500000, 152.500000) rotate(-30.000000) translate(-97.500000, -152.500000) "></path>
            <path d="M54,89 L50.9953976,89 C50.4556644,89 50,89.4477153 50,90 C50,90.5561352 50.4456547,91 50.9953976,91 L54,91 L54,94.0046024 C54,94.5443356 54.4477153,95 55,95 C55.5561352,95 56,94.5543453 56,94.0046024 L56,91 L59.0046024,91 C59.5443356,91 60,90.5522847 60,90 C60,89.4438648 59.5543453,89 59.0046024,89 L56,89 L56,85.9953976 C56,85.4556644 55.5522847,85 55,85 C54.4438648,85 54,85.4456547 54,85.9953976 L54,89 Z" id="star" fill="#B8CCDA" transform="translate(55.000000, 90.000000) rotate(-30.000000) translate(-55.000000, -90.000000) "></path>
            <circle id="Oval-610" fill="#FFFFFF" cx="344" cy="102" r="3"></circle>
            <circle id="Oval-610" fill="#FBD277" cx="258" cy="141" r="5"></circle>
            <circle id="Oval-610" fill="#FBD277" cx="178" cy="8" r="5"></circle>
            <circle id="Oval-610" fill="#FFFFFF" cx="54" cy="282" r="3"></circle>
            <circle id="Oval-610" fill="#61DDBC" cx="167" cy="380" r="4"></circle>
            <circle id="Oval-610" fill="#FBD277" cx="58" cy="371" r="5"></circle>
            <circle id="Oval-610" fill="#FBD277" cx="148" cy="271" r="5"></circle>
            <circle id="Oval-610" fill="#61DDBC" cx="8" cy="391" r="5"></circle>
            <circle id="Oval-610" fill="#FFFFFF" cx="83" cy="346" r="3"></circle>
            <path d="M114,199 L110.995398,199 C110.455664,199 110,199.447715 110,200 C110,200.556135 110.445655,201 110.995398,201 L114,201 L114,204.004602 C114,204.544336 114.447715,205 115,205 C115.556135,205 116,204.554345 116,204.004602 L116,201 L119.004602,201 C119.544336,201 120,200.552285 120,200 C120,199.443865 119.554345,199 119.004602,199 L116,199 L116,195.995398 C116,195.455664 115.552285,195 115,195 C114.443865,195 114,195.445655 114,195.995398 L114,199 Z" id="star" fill="#B8CCDA" transform="translate(115.000000, 200.000000) rotate(-30.000000) translate(-115.000000, -200.000000) "></path>
            <path d="M96,331 L91.4930964,331 C90.6638858,331 90,331.671573 90,332.5 C90,333.334203 90.668482,334 91.4930964,334 L96,334 L96,338.506904 C96,339.336114 96.6715729,340 97.5,340 C98.3342028,340 99,339.331518 99,338.506904 L99,334 L103.506904,334 C104.336114,334 105,333.328427 105,332.5 C105,331.665797 104.331518,331 103.506904,331 L99,331 L99,326.493096 C99,325.663886 98.3284271,325 97.5,325 C96.6657972,325 96,325.668482 96,326.493096 L96,331 Z" id="star" fill="#B8CCDA" transform="translate(97.500000, 332.500000) rotate(-30.000000) translate(-97.500000, -332.500000) "></path>
            <path d="M22,269 L18.9953976,269 C18.4556644,269 18,269.447715 18,270 C18,270.556135 18.4456547,271 18.9953976,271 L22,271 L22,274.004602 C22,274.544336 22.4477153,275 23,275 C23.5561352,275 24,274.554345 24,274.004602 L24,271 L27.0046024,271 C27.5443356,271 28,270.552285 28,270 C28,269.443865 27.5543453,269 27.0046024,269 L24,269 L24,265.995398 C24,265.455664 23.5522847,265 23,265 C22.4438648,265 22,265.445655 22,265.995398 L22,269 Z" id="star" fill="#B8CCDA" transform="translate(23.000000, 270.000000) rotate(-30.000000) translate(-23.000000, -270.000000) "></path>
            <circle id="Oval-610" fill="#FBD277" cx="328" cy="268" r="5"></circle>
            <circle id="Oval-610" fill="#FFFFFF" cx="373" cy="166" r="3"></circle>
            <path d="M404,9 L400.995398,9 C400.455664,9 400,9.44771525 400,10 C400,10.5561352 400.445655,11 400.995398,11 L404,11 L404,14.0046024 C404,14.5443356 404.447715,15 405,15 C405.556135,15 406,14.5543453 406,14.0046024 L406,11 L409.004602,11 C409.544336,11 410,10.5522847 410,10 C410,9.44386482 409.554345,9 409.004602,9 L406,9 L406,5.99539757 C406,5.4556644 405.552285,5 405,5 C404.443865,5 404,5.44565467 404,5.99539757 L404,9 Z" id="star" fill="#B8CCDA" transform="translate(405.000000, 10.000000) rotate(-30.000000) translate(-405.000000, -10.000000) "></path>
            <circle id="Oval-610" fill="#B8CCDA" cx="239" cy="340" r="3"></circle>
            <circle id="Oval-610" fill="#61DDBC" cx="259" cy="396" r="3"></circle>
            <path d="M197,273 C199.209139,273 201,271.209139 201,269 C201,266.790861 199.209139,265 197,265 C194.790861,265 193,266.790861 193,269 C193,271.209139 194.790861,273 197,273 Z" id="Oval-610" fill="#FFFFFF"></path>
            <circle id="Oval-610" fill="#FBD277" cx="208" cy="280" r="5"></circle>
            <path d="M334.6,319.6 L330.393557,319.6 C329.619627,319.6 329,320.226801 329,321 C329,321.778589 329.623917,322.4 330.393557,322.4 L334.6,322.4 L334.6,326.606443 C334.6,327.380373 335.226801,328 336,328 C336.778589,328 337.4,327.376083 337.4,326.606443 L337.4,322.4 L341.606443,322.4 C342.380373,322.4 343,321.773199 343,321 C343,320.221411 342.376083,319.6 341.606443,319.6 L337.4,319.6 L337.4,315.393557 C337.4,314.619627 336.773199,314 336,314 C335.221411,314 334.6,314.623917 334.6,315.393557 L334.6,319.6 Z" id="star" fill="#61DDBC" transform="translate(336.000000, 321.000000) rotate(-330.000000) translate(-336.000000, -321.000000) "></path>
            <circle id="Oval-610" fill="#FFFFFF" cx="224" cy="341" r="3"></circle>
            <circle id="Oval-610" fill="#FFFFFF" cx="253" cy="405" r="3"></circle>
            <path d="M284,248 L280.995398,248 C280.455664,248 280,248.447715 280,249 C280,249.556135 280.445655,250 280.995398,250 L284,250 L284,253.004602 C284,253.544336 284.447715,254 285,254 C285.556135,254 286,253.554345 286,253.004602 L286,250 L289.004602,250 C289.544336,250 290,249.552285 290,249 C290,248.443865 289.554345,248 289.004602,248 L286,248 L286,244.995398 C286,244.455664 285.552285,244 285,244 C284.443865,244 284,244.445655 284,244.995398 L284,248 Z" id="star" fill="#B8CCDA" transform="translate(285.000000, 249.000000) rotate(-30.000000) translate(-285.000000, -249.000000) "></path>
        </g>
    </g>
</svg>