<svg xmlns="http://www.w3.org/2000/svg" width="152" height="17" viewBox="0 0 152 17">
  <g id="Work" fill="none" fill-rule="evenodd">
    <g id="React-Kawaii-Site" fill="#545775" transform="translate(-144 -33)">
      <g id="Group-9" transform="translate(144 29)">
        <g id="reactKawaii-text-logo" transform="translate(0 4)">
          <path id="ReactKawaii-logo" d="M8.74128814,16.4848485 L4.93871186,11.2460195 L4.19674576,11.2460195 L4.19674576,16.4848485 L0,16.4848485 L0,0 L6.56176271,0 C9.94698305,0 12.5670508,1.56000685 12.6597966,5.42509844 C12.6597966,8.47526109 11.4309153,10.1982537 9.43688136,10.8269132 L13.9118644,16.4848485 L8.74128814,16.4848485 Z M4.1220339,7.72727273 L6.68812219,7.72727273 C9.44972198,7.72727273 9.44972198,4.12121212 6.68812219,4.12121212 L4.1220339,4.12121212 L4.1220339,7.72727273 Z M19.1041221,3.91165896 L19.1041221,6.47286424 L25.7031389,6.47286424 L25.7031389,10.0818353 L19.1041221,10.0818353 L19.1041221,12.5499058 L26.2779661,12.5499058 L26.2779661,16.4848485 L14.9423729,16.4848485 L14.9423729,0 L26.2779661,0 L26.2779661,3.91165896 L19.1041221,3.91165896 Z M36.8674898,0 L42.7661017,16.4848485 L38.2896848,16.4848485 L37.2172099,13.1785653 L32.810737,13.1785653 L31.7848915,16.4848485 L27.3084746,16.4848485 L33.0671984,0 L36.8674898,0 Z M33.4915254,9.78787879 L36.0677966,9.78787879 L34.8768788,5.15151515 L34.7553566,5.15151515 L33.4915254,9.78787879 Z M52.0348886,11.6057692 L55.6474576,13.2870879 C54.2811655,15.9725275 51.8033137,17 49.7422967,17 C46.5234051,17 43.2813559,15.1085165 43.2813559,11.3489011 L43.2813559,5.6510989 C43.2813559,1.91483516 46.5234051,0 49.8117692,0 C51.8264711,0 54.258008,0.864010989 55.5779851,3.80631868 L52.196991,5.18406593 C51.0854313,3.12912088 47.4265473,3.59615385 47.4265473,5.6510989 L47.4265473,11.3489011 C47.4265473,13.3337912 51.1317463,13.8942308 52.0348886,11.6057692 Z M69.0440678,3.9526435 L64.6963211,3.9526435 L64.6963211,16.4848485 L60.5104586,16.4848485 L60.5104586,3.9526435 L56.1627119,3.9526435 L56.1627119,0 L69.0440678,0 L69.0440678,3.9526435 Z M78.9204957,6.10032529 L83.4097023,0 L88.6237288,0 L82.0769691,7.96302003 L88.6003475,16.4848485 L83.2927959,16.4848485 L79.0607834,10.5940764 L78.9204957,10.7803458 L78.9204957,16.4848485 L74.7118644,16.4848485 L74.7118644,0 L78.9204957,0 L78.9204957,6.10032529 Z M97.6674898,0 L103.566102,16.4848485 L99.0896848,16.4848485 L98.0172099,13.1785653 L93.610737,13.1785653 L92.5848915,16.4848485 L88.1084746,16.4848485 L93.8671984,0 L97.6674898,0 Z M94.8067797,9.78787879 L97.3830508,9.78787879 L96.192133,5.15151515 L96.0706108,5.15151515 L94.8067797,9.78787879 Z M118.434706,7.93973635 L120.420265,0 L124.691525,0 L119.981595,16.4848485 L116.149004,16.4848485 L114.694467,11.9212464 L114.11727,8.14928951 L114.048006,8.14928951 L113.424633,11.8979627 L112.131711,16.4848485 L108.29912,16.4848485 L103.566102,0 L107.86045,0 L109.799833,7.89316898 L110.215415,11.3857216 L110.330855,11.3857216 L110.723349,7.91645266 L112.547293,2.14209896 L115.687246,2.14209896 L117.372663,7.93973635 L117.903684,11.3857216 L117.972948,11.3857216 L118.434706,7.93973635 Z M134.250541,0 L140.149153,16.4848485 L135.672736,16.4848485 L134.600261,13.1785653 L130.193788,13.1785653 L129.167942,16.4848485 L124.691525,16.4848485 L130.450249,0 L134.250541,0 Z M130.874576,9.78787879 L133.450847,9.78787879 L132.25993,5.15151515 L132.138407,5.15151515 L130.874576,9.78787879 Z M145.301695,0 L145.301695,16.4848485 L141.179661,16.4848485 L141.179661,0 L145.301695,0 Z M152,0 L152,16.4848485 L147.877966,16.4848485 L147.877966,0 L152,0 Z"/>
        </g>
      </g>
    </g>
  </g>
</svg>
