<svg fill="none" xmlns="http://www.w3.org/2000/svg" viewBox="0 0 512 316">
  <path d="M21.564 67.874 444.994.809c13.659-2.164 26.486 7.156 28.65 20.815 2.163 13.66-7.156 26.488-20.816 28.651l-359.27 56.903a25.44 25.44 0 0 0-2.833.287l-64.159 10.162c-12.558.56-23.804-8.392-25.817-21.102-2.164-13.66 7.155-26.488 20.815-28.651Z" fill="#F2FAFF"/>
  <path d="M34.4 167.094c.885-.04 1.776-.127 2.671-.262-13.57 2.238-22.808 15.018-20.653 28.623 2.025 12.787 13.395 21.772 26.045 21.093l24.671-3.908a25.578 25.578 0 0 1 2.606-.276c12.65-.679 24.02 8.305 26.044 21.092 2.164 13.66-7.155 26.487-20.815 28.65l-24.672 3.908a25.297 25.297 0 0 0 2.606-.276c-13.66 2.164-22.98 14.991-20.816 28.65v.001c2.164 13.66 14.991 22.979 28.65 20.816l423.43-67.065c13.66-2.164 22.979-14.991 20.816-28.65-2.164-13.66-14.991-22.98-28.65-20.816l-22.38 3.544c-.34.068-.682.13-1.028.184l-84.092 13.319c-13.66 2.164-26.487-7.155-28.65-20.815-2.164-13.659 7.155-26.487 20.815-28.651l2.677-.424c-.344.04-.689.088-1.035.142l105.858-16.766c13.659-2.163 22.979-14.99 20.815-28.65-2.121-13.396-14.5-22.62-27.861-20.929l-53.902 8.538c-13.66 2.163-26.487-7.156-28.65-20.816-2.164-13.66 7.156-26.487 20.815-28.65l53.869-8.533c-.252.032-.503.068-.756.108l-359.27 56.903c12.558-.56 23.804 8.393 25.817 21.103 2.164 13.659-7.156 26.487-20.815 28.651L34.4 167.094Z" fill="#F2FAFF"/>
</svg>