<svg width="100" height="100" viewBox="0 0 100 100" fill="none" xmlns="http://www.w3.org/2000/svg">
<g clip-path="url(#clip0_501_1428)">
<path d="M52.7937 11.3506C52.7937 11.3506 55.3481 2.17365 61.4227 1.76644C67.4974 1.35924 65.4094 17.4469 65.4094 17.4469" fill="#888FDC"/>
<path d="M63.69 20.1359C63.69 20.1359 70.4231 10.7193 75.694 12.9775C80.965 15.2357 75.8863 29.9818 75.8863 29.9818" fill="#888FDC"/>
<path d="M72.0842 32.5428C72.0842 32.5428 81.416 26.9759 85.073 30.925C88.7299 34.874 78.8024 45.6791 78.8024 45.6791" fill="#888FDC"/>
<path d="M74.1444 49.0502C74.1444 49.0502 82.1526 44.2394 85.2588 47.5983C88.365 50.9573 79.82 60.252 79.82 60.252" fill="#888FDC"/>
<path d="M76.3445 62.5669C76.3445 62.5669 84.5657 61.245 86.0028 65.0205C87.44 68.7961 77.2562 73.6201 77.2562 73.6201" fill="#888FDC"/>
<path fill-rule="evenodd" clip-rule="evenodd" d="M72.4151 79.9237C72.4151 79.9237 80.8448 75.6616 83.3153 78.8372C85.7859 82.0127 80.2273 88.6372 80.2273 88.6372" fill="#888FDC"/>
<path fill-rule="evenodd" clip-rule="evenodd" d="M80.9285 86.6715C80.9285 86.6715 89.3582 82.4094 91.8287 85.585C94.2993 88.7605 88.7407 95.385 88.7407 95.385" fill="#888FDC"/>
<path fill-rule="evenodd" clip-rule="evenodd" d="M72.2001 72.4333C72.2001 72.4333 80.9637 86.0741 95.62 91.7474C98.9295 93.0284 98.2119 97.2085 92.7996 97.2085C87.3873 97.2085 58.2031 97.2085 58.2031 97.2085L72.2001 72.4333Z" fill="#99D384"/>
<path fill-rule="evenodd" clip-rule="evenodd" d="M41.0225 99.9999C87.6542 99.9999 78.8432 56.0451 78.8432 43.8593C78.8432 22.426 61.9103 8.92505 41.0225 8.92505C20.1347 8.92505 3.2018 22.426 3.2018 43.8593C3.2018 55.5009 -5.60921 99.9999 41.0225 99.9999Z" fill="#A6E191"/>
<path fill-rule="evenodd" clip-rule="evenodd" d="M27.7885 34.0492C30.0004 34.0492 31.7936 32.3307 31.7936 30.2108C31.7936 28.0909 30.0004 26.3724 27.7885 26.3724C25.5766 26.3724 23.7834 28.0909 23.7834 30.2108C23.7834 32.3307 25.5766 34.0492 27.7885 34.0492Z" fill="black"/>
<path fill-rule="evenodd" clip-rule="evenodd" d="M54.2565 34.0492C56.4685 34.0492 58.2616 32.3307 58.2616 30.2108C58.2616 28.0909 56.4685 26.3724 54.2565 26.3724C52.0446 26.3724 50.2515 28.0909 50.2515 30.2108C50.2515 32.3307 52.0446 34.0492 54.2565 34.0492Z" fill="black"/>
<path fill-rule="evenodd" clip-rule="evenodd" d="M41.2102 78.8258C70.1299 78.8258 70.1299 72.8086 70.1299 58.7062C70.1299 44.6038 64.0476 39.7379 41.2102 39.7379C18.3728 39.7379 12.2905 44.6038 12.2905 58.7062C12.2905 72.8086 12.2905 78.8258 41.2102 78.8258Z" fill="#ECDBCA"/>
<mask id="mask0_501_1428" style="mask-type:luminance" maskUnits="userSpaceOnUse" x="12" y="39" width="59" height="40">
<path fill-rule="evenodd" clip-rule="evenodd" d="M41.2102 78.8258C70.1299 78.8258 70.1299 72.8086 70.1299 58.7062C70.1299 44.6038 64.0476 39.7379 41.2102 39.7379C18.3728 39.7379 12.2905 44.6038 12.2905 58.7062C12.2905 72.8086 12.2905 78.8258 41.2102 78.8258Z" fill="white"/>
</mask>
<g mask="url(#mask0_501_1428)">
<path fill-rule="evenodd" clip-rule="evenodd" d="M19.8328 81.4763C19.8328 81.4763 23.0783 72.2427 25.6862 72.2427C28.294 72.2427 31.5395 81.4763 31.5395 81.4763H19.8328Z" fill="white"/>
<path fill-rule="evenodd" clip-rule="evenodd" d="M31.1555 82.7065C31.1555 82.7065 34.4011 73.4729 37.0089 73.4729C39.6167 73.4729 42.8623 82.7065 42.8623 82.7065H31.1555Z" fill="white"/>
<path fill-rule="evenodd" clip-rule="evenodd" d="M40.9487 82.7065C40.9487 82.7065 44.1943 73.4729 46.8021 73.4729C49.4099 73.4729 52.6555 82.7065 52.6555 82.7065H40.9487Z" fill="white"/>
<path fill-rule="evenodd" clip-rule="evenodd" d="M51.9658 81.4763C51.9658 81.4763 55.2114 72.2427 57.8192 72.2427C60.427 72.2427 63.6726 81.4763 63.6726 81.4763H51.9658Z" fill="white"/>
<path fill-rule="evenodd" clip-rule="evenodd" d="M19.8328 39.3211C19.8328 39.3211 23.0783 48.5547 25.6862 48.5547C28.294 48.5547 31.5395 39.3211 31.5395 39.3211H19.8328Z" fill="white"/>
<path fill-rule="evenodd" clip-rule="evenodd" d="M31.1555 38.3981C31.1555 38.3981 34.4011 47.6317 37.0089 47.6317C39.6167 47.6317 42.8623 38.3981 42.8623 38.3981H31.1555Z" fill="white"/>
<path fill-rule="evenodd" clip-rule="evenodd" d="M40.9487 38.3981C40.9487 38.3981 44.1943 47.6317 46.8021 47.6317C49.4099 47.6317 52.6555 38.3981 52.6555 38.3981H40.9487Z" fill="white"/>
<path fill-rule="evenodd" clip-rule="evenodd" d="M51.9658 39.3211C51.9658 39.3211 55.2114 48.5547 57.8192 48.5547C60.427 48.5547 63.6726 39.3211 63.6726 39.3211H51.9658Z" fill="white"/>
</g>
<path fill-rule="evenodd" clip-rule="evenodd" d="M34.7369 65.7925C34.3466 64.9388 34.1168 64.0184 34.1162 63.0718C34.1162 62.6375 34.301 62.2125 34.6232 61.9057C34.946 61.5984 35.3923 61.4225 35.8484 61.4225H47.9741C48.4303 61.4225 48.876 61.5984 49.1988 61.9057C49.5216 62.2125 49.7063 62.6375 49.7063 63.0718C49.7023 64.4923 49.1959 65.8503 48.38 67.0207C47.5601 68.1889 46.4145 69.1856 45.0114 69.8201C44.0771 70.2406 43.0234 70.4941 41.9113 70.4935C40.2391 70.4935 38.7153 69.9256 37.4964 69.0718C36.2734 68.2142 35.3253 67.0718 34.7369 65.7925Z" fill="black"/>
<mask id="mask1_501_1428" style="mask-type:luminance" maskUnits="userSpaceOnUse" x="34" y="61" width="16" height="10">
<path fill-rule="evenodd" clip-rule="evenodd" d="M34.7369 65.7925C34.3466 64.9388 34.1168 64.0184 34.1162 63.0718C34.1162 62.6375 34.301 62.2125 34.6232 61.9057C34.946 61.5984 35.3923 61.4225 35.8484 61.4225H47.9741C48.4303 61.4225 48.876 61.5984 49.1988 61.9057C49.5216 62.2125 49.7063 62.6375 49.7063 63.0718C49.7023 64.4923 49.1959 65.8503 48.38 67.0207C47.5601 68.1889 46.4145 69.1856 45.0114 69.8201C44.0771 70.2406 43.0234 70.4941 41.9113 70.4935C40.2391 70.4935 38.7153 69.9256 37.4964 69.0718C36.2734 68.2142 35.3253 67.0718 34.7369 65.7925Z" fill="white"/>
</mask>
<g mask="url(#mask1_501_1428)">
<path fill-rule="evenodd" clip-rule="evenodd" d="M39.1775 67.2451C39.0171 67.5411 38.9226 67.8601 38.9224 68.1883C38.9224 68.3389 38.9983 68.4862 39.1307 68.5925C39.1404 68.6003 39.1513 68.6101 39.1641 68.6218C39.3284 68.7709 39.8152 69.2128 42.1262 69.2128C44.437 69.2128 44.9237 68.771 45.088 68.6219C45.1009 68.6102 45.1118 68.6003 45.1214 68.5925C45.2541 68.4862 45.33 68.3389 45.33 68.1883C45.3284 67.6958 45.1202 67.2251 44.7849 66.8194C44.4479 66.4144 43.9771 66.0688 43.4004 65.8489C43.0164 65.7031 42.5833 65.6152 42.1262 65.6154C41.4389 65.6154 40.8126 65.8123 40.3116 66.1083C39.809 66.4056 39.4193 66.8016 39.1775 67.2451Z" fill="#E74144"/>
</g>
<path opacity="0.2" fill-rule="evenodd" clip-rule="evenodd" d="M25.73 63.3877C26.6127 63.3877 27.3283 62.7131 27.3283 61.8809C27.3283 61.0488 26.6127 60.3741 25.73 60.3741C24.8472 60.3741 24.1316 61.0488 24.1316 61.8809C24.1316 62.7131 24.8472 63.3877 25.73 63.3877Z" fill="black"/>
<path opacity="0.2" fill-rule="evenodd" clip-rule="evenodd" d="M57.697 63.3877C58.5797 63.3877 59.2954 62.7131 59.2954 61.8809C59.2954 61.0488 58.5797 60.3741 57.697 60.3741C56.8142 60.3741 56.0986 61.0488 56.0986 61.8809C56.0986 62.7131 56.8142 63.3877 57.697 63.3877Z" fill="black"/>
<path fill-rule="evenodd" clip-rule="evenodd" d="M31.9762 57.1219C31.1821 57.1219 30.5384 56.5287 30.5384 55.7969C30.5384 55.3706 30.1622 55.0239 29.6998 55.0239C29.2378 55.0239 28.8611 55.3706 28.8611 55.7969C28.8611 56.5287 28.2179 57.1219 27.4233 57.1219C26.6292 57.1219 25.9856 56.5287 25.9856 55.7969C25.9856 53.9095 27.6519 52.3738 29.6998 52.3738C31.7481 52.3738 33.4139 53.9095 33.4139 55.7969C33.4139 56.5287 32.7708 57.1219 31.9762 57.1219" fill="black"/>
<path fill-rule="evenodd" clip-rule="evenodd" d="M56.3836 57.1219C55.5895 57.1219 54.9459 56.5287 54.9459 55.7969C54.9459 55.3706 54.5697 55.0239 54.1072 55.0239C53.6452 55.0239 53.2685 55.3706 53.2685 55.7969C53.2685 56.5287 52.6254 57.1219 51.8308 57.1219C51.0367 57.1219 50.3931 56.5287 50.3931 55.7969C50.3931 53.9095 52.0594 52.3738 54.1072 52.3738C56.1555 52.3738 57.8214 53.9095 57.8214 55.7969C57.8214 56.5287 57.1782 57.1219 56.3836 57.1219" fill="black"/>
</g>
<defs>
<clipPath id="clip0_501_1428">
<rect width="100" height="100" fill="white"/>
</clipPath>
</defs>
</svg>
